<svg xmlns="http://www.w3.org/2000/svg" viewBox="41 49 185 73">
<g id="android" stroke="none" stroke-width="1" fill="none" fill-rule="evenodd">
<path d="M41.0843995,115.349185 C41.0843995,115.349185 50.7287053,121.71038 54.4922291,122.891811 C58.2557529,124.073242 59.8542899,120.651377 63.1861721,119.760717 C66.5180543,118.870057 72.3167907,120.503576 77.9016908,119.169564 C83.4865909,117.835552 89.3189836,112.723539 97.6113432,110.360802 C105.903703,107.998064 111.709238,107.227369 117.468879,105.583992 C123.22852,103.940614 128.044085,105.036313 132.081817,103.392595 C136.119549,101.748877 147.552737,96.0632197 151.405272,95.4252393 C155.257808,94.7872588 154.914201,94.9659163 159.311095,94.5144804 C163.707988,94.0630444 166.651744,92.2043538 169.200937,90.7653765 C171.750131,89.3263992 174.851874,86.4689699 176.803015,85.6143951 C178.754156,84.7598203 179.955092,85.910215 181.538848,84.87723 C183.122604,83.8442451 184.004594,80.8544565 185.644572,78.9122521 C187.28455,76.9700477 189.123556,74.9382454 191.400133,73.8631325 C193.676711,72.7880197 195.206266,73.3262115 198.524382,72.1364642 C201.842498,70.9467169 205.756671,67.6724869 214.300331,60.8616156 C222.843992,54.0507444 226.135438,49.4762793 226.135438,49.4762793" fill="none" fill-rule="evenodd" stroke="none" stroke-width="2.5" stroke-linecap="square" stroke-linejoin="miter" stroke-miterlimit="10" id="567E0529-2D4B-45A3-9ECD-12085D6644F2"/>
</g>
</svg>